<svg id="visual" viewBox="0 0 540 960" width="540" height="960" xmlns="http://www.w3.org/2000/svg" xmlns:xlink="http://www.w3.org/1999/xlink" version="1.1"><rect x="0" y="0" width="540" height="960" fill="#001220"></rect><path d="M0 750L12.8 752.5C25.7 755 51.3 760 77 757.8C102.7 755.7 128.3 746.3 154 745.5C179.7 744.7 205.3 752.3 231.2 755.8C257 759.3 283 758.7 308.8 763.7C334.7 768.7 360.3 779.3 386 788.3C411.7 797.3 437.3 804.7 463 801.2C488.7 797.7 514.3 783.3 527.2 776.2L540 769L540 961L527.2 961C514.3 961 488.7 961 463 961C437.3 961 411.7 961 386 961C360.3 961 334.7 961 308.8 961C283 961 257 961 231.2 961C205.3 961 179.7 961 154 961C128.3 961 102.7 961 77 961C51.3 961 25.7 961 12.8 961L0 961Z" fill="#fa7268"></path><path d="M0 838L12.8 836C25.7 834 51.3 830 77 820.8C102.7 811.7 128.3 797.3 154 793.7C179.7 790 205.3 797 231.2 797.5C257 798 283 792 308.8 793.5C334.7 795 360.3 804 386 808.5C411.7 813 437.3 813 463 812.3C488.7 811.7 514.3 810.3 527.2 809.7L540 809L540 961L527.2 961C514.3 961 488.7 961 463 961C437.3 961 411.7 961 386 961C360.3 961 334.7 961 308.8 961C283 961 257 961 231.2 961C205.3 961 179.7 961 154 961C128.3 961 102.7 961 77 961C51.3 961 25.7 961 12.8 961L0 961Z" fill="#ef5f67"></path><path d="M0 861L12.8 856C25.7 851 51.3 841 77 832.7C102.7 824.3 128.3 817.7 154 817.7C179.7 817.7 205.3 824.3 231.2 833.7C257 843 283 855 308.8 850.5C334.7 846 360.3 825 386 820.2C411.7 815.3 437.3 826.7 463 829C488.7 831.3 514.3 824.7 527.2 821.3L540 818L540 961L527.2 961C514.3 961 488.7 961 463 961C437.3 961 411.7 961 386 961C360.3 961 334.7 961 308.8 961C283 961 257 961 231.2 961C205.3 961 179.7 961 154 961C128.3 961 102.7 961 77 961C51.3 961 25.7 961 12.8 961L0 961Z" fill="#e34c67"></path><path d="M0 851L12.8 857C25.7 863 51.3 875 77 875.3C102.7 875.7 128.3 864.3 154 867.2C179.7 870 205.3 887 231.2 891C257 895 283 886 308.8 877.7C334.7 869.3 360.3 861.7 386 863.5C411.7 865.3 437.3 876.7 463 881.2C488.7 885.7 514.3 883.3 527.2 882.2L540 881L540 961L527.2 961C514.3 961 488.7 961 463 961C437.3 961 411.7 961 386 961C360.3 961 334.7 961 308.8 961C283 961 257 961 231.2 961C205.3 961 179.7 961 154 961C128.3 961 102.7 961 77 961C51.3 961 25.7 961 12.8 961L0 961Z" fill="#d53867"></path><path d="M0 903L12.8 908.2C25.7 913.3 51.3 923.7 77 927.7C102.7 931.7 128.3 929.3 154 925.2C179.7 921 205.3 915 231.2 910.5C257 906 283 903 308.8 904.8C334.7 906.7 360.3 913.3 386 917.2C411.7 921 437.3 922 463 921.8C488.7 921.7 514.3 920.3 527.2 919.7L540 919L540 961L527.2 961C514.3 961 488.7 961 463 961C437.3 961 411.7 961 386 961C360.3 961 334.7 961 308.8 961C283 961 257 961 231.2 961C205.3 961 179.7 961 154 961C128.3 961 102.7 961 77 961C51.3 961 25.7 961 12.8 961L0 961Z" fill="#c62368"></path></svg>